G04 #@! TF.GenerationSoftware,KiCad,Pcbnew,5.1.5*
G04 #@! TF.CreationDate,2020-03-24T12:45:04+09:00*
G04 #@! TF.ProjectId,ABC,4142432e-6b69-4636-9164-5f7063625858,rev?*
G04 #@! TF.SameCoordinates,Original*
G04 #@! TF.FileFunction,Copper,L1,Top*
G04 #@! TF.FilePolarity,Positive*
%FSLAX46Y46*%
G04 Gerber Fmt 4.6, Leading zero omitted, Abs format (unit mm)*
G04 Created by KiCad (PCBNEW 5.1.5) date 2020-03-24 12:45:04*
%MOMM*%
%LPD*%
G04 APERTURE LIST*
%ADD10R,2.000000X2.000000*%
%ADD11C,2.000000*%
%ADD12C,0.254000*%
G04 APERTURE END LIST*
D10*
X86500000Y-59400000D03*
X86500000Y-53600000D03*
X94000000Y-58750000D03*
X94000000Y-54250000D03*
X107000000Y-58750000D03*
X107000000Y-54250000D03*
X114500000Y-59400000D03*
X114500000Y-53600000D03*
D11*
X86500000Y-53600000D02*
X86500000Y-59400000D01*
X107000000Y-60000000D02*
X107000000Y-58750000D01*
X105000000Y-62000000D02*
X107000000Y-60000000D01*
X88000000Y-62000000D02*
X105000000Y-62000000D01*
X86500000Y-59400000D02*
X86500000Y-60500000D01*
X86500000Y-60500000D02*
X88000000Y-62000000D01*
X114500000Y-52500000D02*
X114500000Y-53600000D01*
X113000000Y-51000000D02*
X114500000Y-52500000D01*
X96000000Y-51000000D02*
X113000000Y-51000000D01*
X94000000Y-54250000D02*
X94000000Y-53000000D01*
X94000000Y-53000000D02*
X96000000Y-51000000D01*
D12*
G36*
X94838286Y-49838286D02*
G01*
X94787080Y-49900682D01*
X92900682Y-51787080D01*
X92838287Y-51838286D01*
X92633970Y-52087248D01*
X92482148Y-52371285D01*
X92388657Y-52679484D01*
X92374767Y-52820516D01*
X92357089Y-53000000D01*
X92365000Y-53080319D01*
X92365000Y-53218808D01*
X92361928Y-53250000D01*
X92361928Y-55250000D01*
X92374188Y-55374482D01*
X92410498Y-55494180D01*
X92469463Y-55604494D01*
X92548815Y-55701185D01*
X92645506Y-55780537D01*
X92755820Y-55839502D01*
X92875518Y-55875812D01*
X93000000Y-55888072D01*
X93950869Y-55888072D01*
X94000000Y-55892911D01*
X94049131Y-55888072D01*
X95000000Y-55888072D01*
X95124482Y-55875812D01*
X95244180Y-55839502D01*
X95354494Y-55780537D01*
X95451185Y-55701185D01*
X95530537Y-55604494D01*
X95589502Y-55494180D01*
X95625812Y-55374482D01*
X95638072Y-55250000D01*
X95638072Y-53674166D01*
X96677239Y-52635000D01*
X105839876Y-52635000D01*
X105755820Y-52660498D01*
X105645506Y-52719463D01*
X105548815Y-52798815D01*
X105469463Y-52895506D01*
X105410498Y-53005820D01*
X105374188Y-53125518D01*
X105361928Y-53250000D01*
X105365000Y-53964250D01*
X105523750Y-54123000D01*
X106873000Y-54123000D01*
X106873000Y-54103000D01*
X107127000Y-54103000D01*
X107127000Y-54123000D01*
X108476250Y-54123000D01*
X108635000Y-53964250D01*
X108635369Y-53878363D01*
X109765000Y-53878363D01*
X109765000Y-54121637D01*
X109812460Y-54360236D01*
X109905557Y-54584992D01*
X110040713Y-54787267D01*
X110212733Y-54959287D01*
X110415008Y-55094443D01*
X110639764Y-55187540D01*
X110878363Y-55235000D01*
X111121637Y-55235000D01*
X111360236Y-55187540D01*
X111584992Y-55094443D01*
X111787267Y-54959287D01*
X111959287Y-54787267D01*
X112094443Y-54584992D01*
X112187540Y-54360236D01*
X112235000Y-54121637D01*
X112235000Y-53878363D01*
X112187540Y-53639764D01*
X112094443Y-53415008D01*
X111959287Y-53212733D01*
X111787267Y-53040713D01*
X111584992Y-52905557D01*
X111360236Y-52812460D01*
X111121637Y-52765000D01*
X110878363Y-52765000D01*
X110639764Y-52812460D01*
X110415008Y-52905557D01*
X110212733Y-53040713D01*
X110040713Y-53212733D01*
X109905557Y-53415008D01*
X109812460Y-53639764D01*
X109765000Y-53878363D01*
X108635369Y-53878363D01*
X108638072Y-53250000D01*
X108625812Y-53125518D01*
X108589502Y-53005820D01*
X108530537Y-52895506D01*
X108451185Y-52798815D01*
X108354494Y-52719463D01*
X108244180Y-52660498D01*
X108160124Y-52635000D01*
X112322762Y-52635000D01*
X112861928Y-53174167D01*
X112861928Y-54600000D01*
X112874188Y-54724482D01*
X112910498Y-54844180D01*
X112969463Y-54954494D01*
X113048815Y-55051185D01*
X113145506Y-55130537D01*
X113255820Y-55189502D01*
X113375518Y-55225812D01*
X113500000Y-55238072D01*
X114450869Y-55238072D01*
X114500000Y-55242911D01*
X114549131Y-55238072D01*
X115500000Y-55238072D01*
X115624482Y-55225812D01*
X115744180Y-55189502D01*
X115854494Y-55130537D01*
X115951185Y-55051185D01*
X116030537Y-54954494D01*
X116089502Y-54844180D01*
X116125812Y-54724482D01*
X116138072Y-54600000D01*
X116138072Y-52600000D01*
X116135567Y-52574564D01*
X116142911Y-52499999D01*
X116130234Y-52371286D01*
X116111343Y-52179484D01*
X116017852Y-51871285D01*
X115866031Y-51587248D01*
X115661714Y-51338286D01*
X115599320Y-51287081D01*
X114212925Y-49900686D01*
X114161714Y-49838286D01*
X113944471Y-49660000D01*
X117340000Y-49660000D01*
X117340001Y-63340000D01*
X105944471Y-63340000D01*
X106161714Y-63161714D01*
X106212925Y-63099313D01*
X108099320Y-61212919D01*
X108161714Y-61161714D01*
X108366031Y-60912752D01*
X108517852Y-60628715D01*
X108611343Y-60320516D01*
X108635000Y-60080322D01*
X108635000Y-60080320D01*
X108642911Y-60000001D01*
X108635000Y-59919681D01*
X108635000Y-59781192D01*
X108638072Y-59750000D01*
X108638072Y-58878363D01*
X109765000Y-58878363D01*
X109765000Y-59121637D01*
X109812460Y-59360236D01*
X109905557Y-59584992D01*
X110040713Y-59787267D01*
X110212733Y-59959287D01*
X110415008Y-60094443D01*
X110639764Y-60187540D01*
X110878363Y-60235000D01*
X111121637Y-60235000D01*
X111360236Y-60187540D01*
X111584992Y-60094443D01*
X111787267Y-59959287D01*
X111959287Y-59787267D01*
X112094443Y-59584992D01*
X112187540Y-59360236D01*
X112235000Y-59121637D01*
X112235000Y-58878363D01*
X112187540Y-58639764D01*
X112094443Y-58415008D01*
X112084415Y-58400000D01*
X112861928Y-58400000D01*
X112861928Y-60400000D01*
X112874188Y-60524482D01*
X112910498Y-60644180D01*
X112969463Y-60754494D01*
X113048815Y-60851185D01*
X113145506Y-60930537D01*
X113255820Y-60989502D01*
X113375518Y-61025812D01*
X113500000Y-61038072D01*
X115500000Y-61038072D01*
X115624482Y-61025812D01*
X115744180Y-60989502D01*
X115854494Y-60930537D01*
X115951185Y-60851185D01*
X116030537Y-60754494D01*
X116089502Y-60644180D01*
X116125812Y-60524482D01*
X116138072Y-60400000D01*
X116138072Y-58400000D01*
X116125812Y-58275518D01*
X116089502Y-58155820D01*
X116030537Y-58045506D01*
X115951185Y-57948815D01*
X115854494Y-57869463D01*
X115744180Y-57810498D01*
X115624482Y-57774188D01*
X115500000Y-57761928D01*
X113500000Y-57761928D01*
X113375518Y-57774188D01*
X113255820Y-57810498D01*
X113145506Y-57869463D01*
X113048815Y-57948815D01*
X112969463Y-58045506D01*
X112910498Y-58155820D01*
X112874188Y-58275518D01*
X112861928Y-58400000D01*
X112084415Y-58400000D01*
X111959287Y-58212733D01*
X111787267Y-58040713D01*
X111584992Y-57905557D01*
X111360236Y-57812460D01*
X111121637Y-57765000D01*
X110878363Y-57765000D01*
X110639764Y-57812460D01*
X110415008Y-57905557D01*
X110212733Y-58040713D01*
X110040713Y-58212733D01*
X109905557Y-58415008D01*
X109812460Y-58639764D01*
X109765000Y-58878363D01*
X108638072Y-58878363D01*
X108638072Y-57750000D01*
X108625812Y-57625518D01*
X108589502Y-57505820D01*
X108530537Y-57395506D01*
X108451185Y-57298815D01*
X108354494Y-57219463D01*
X108244180Y-57160498D01*
X108124482Y-57124188D01*
X108000000Y-57111928D01*
X107049131Y-57111928D01*
X107000000Y-57107089D01*
X106950869Y-57111928D01*
X106000000Y-57111928D01*
X105875518Y-57124188D01*
X105755820Y-57160498D01*
X105645506Y-57219463D01*
X105548815Y-57298815D01*
X105469463Y-57395506D01*
X105410498Y-57505820D01*
X105374188Y-57625518D01*
X105361928Y-57750000D01*
X105361928Y-59325833D01*
X104322762Y-60365000D01*
X95160124Y-60365000D01*
X95244180Y-60339502D01*
X95354494Y-60280537D01*
X95451185Y-60201185D01*
X95530537Y-60104494D01*
X95589502Y-59994180D01*
X95625812Y-59874482D01*
X95638072Y-59750000D01*
X95635000Y-59035750D01*
X95476250Y-58877000D01*
X94127000Y-58877000D01*
X94127000Y-58897000D01*
X93873000Y-58897000D01*
X93873000Y-58877000D01*
X92523750Y-58877000D01*
X92365000Y-59035750D01*
X92361928Y-59750000D01*
X92374188Y-59874482D01*
X92410498Y-59994180D01*
X92469463Y-60104494D01*
X92548815Y-60201185D01*
X92645506Y-60280537D01*
X92755820Y-60339502D01*
X92839876Y-60365000D01*
X88677239Y-60365000D01*
X88138072Y-59825834D01*
X88138072Y-58878363D01*
X88765000Y-58878363D01*
X88765000Y-59121637D01*
X88812460Y-59360236D01*
X88905557Y-59584992D01*
X89040713Y-59787267D01*
X89212733Y-59959287D01*
X89415008Y-60094443D01*
X89639764Y-60187540D01*
X89878363Y-60235000D01*
X90121637Y-60235000D01*
X90360236Y-60187540D01*
X90584992Y-60094443D01*
X90787267Y-59959287D01*
X90959287Y-59787267D01*
X91094443Y-59584992D01*
X91187540Y-59360236D01*
X91235000Y-59121637D01*
X91235000Y-58878363D01*
X91187540Y-58639764D01*
X91094443Y-58415008D01*
X90959287Y-58212733D01*
X90787267Y-58040713D01*
X90584992Y-57905557D01*
X90360236Y-57812460D01*
X90121637Y-57765000D01*
X89878363Y-57765000D01*
X89639764Y-57812460D01*
X89415008Y-57905557D01*
X89212733Y-58040713D01*
X89040713Y-58212733D01*
X88905557Y-58415008D01*
X88812460Y-58639764D01*
X88765000Y-58878363D01*
X88138072Y-58878363D01*
X88138072Y-58400000D01*
X88135000Y-58368808D01*
X88135000Y-57750000D01*
X92361928Y-57750000D01*
X92365000Y-58464250D01*
X92523750Y-58623000D01*
X93873000Y-58623000D01*
X93873000Y-57273750D01*
X94127000Y-57273750D01*
X94127000Y-58623000D01*
X95476250Y-58623000D01*
X95635000Y-58464250D01*
X95638072Y-57750000D01*
X95625812Y-57625518D01*
X95589502Y-57505820D01*
X95530537Y-57395506D01*
X95451185Y-57298815D01*
X95354494Y-57219463D01*
X95244180Y-57160498D01*
X95124482Y-57124188D01*
X95000000Y-57111928D01*
X94285750Y-57115000D01*
X94127000Y-57273750D01*
X93873000Y-57273750D01*
X93714250Y-57115000D01*
X93000000Y-57111928D01*
X92875518Y-57124188D01*
X92755820Y-57160498D01*
X92645506Y-57219463D01*
X92548815Y-57298815D01*
X92469463Y-57395506D01*
X92410498Y-57505820D01*
X92374188Y-57625518D01*
X92361928Y-57750000D01*
X88135000Y-57750000D01*
X88135000Y-56279872D01*
X98265000Y-56279872D01*
X98265000Y-56720128D01*
X98350890Y-57151925D01*
X98519369Y-57558669D01*
X98763962Y-57924729D01*
X99075271Y-58236038D01*
X99441331Y-58480631D01*
X99848075Y-58649110D01*
X100279872Y-58735000D01*
X100720128Y-58735000D01*
X101151925Y-58649110D01*
X101558669Y-58480631D01*
X101924729Y-58236038D01*
X102236038Y-57924729D01*
X102480631Y-57558669D01*
X102649110Y-57151925D01*
X102735000Y-56720128D01*
X102735000Y-56279872D01*
X102649110Y-55848075D01*
X102480631Y-55441331D01*
X102352788Y-55250000D01*
X105361928Y-55250000D01*
X105374188Y-55374482D01*
X105410498Y-55494180D01*
X105469463Y-55604494D01*
X105548815Y-55701185D01*
X105645506Y-55780537D01*
X105755820Y-55839502D01*
X105875518Y-55875812D01*
X106000000Y-55888072D01*
X106714250Y-55885000D01*
X106873000Y-55726250D01*
X106873000Y-54377000D01*
X107127000Y-54377000D01*
X107127000Y-55726250D01*
X107285750Y-55885000D01*
X108000000Y-55888072D01*
X108124482Y-55875812D01*
X108244180Y-55839502D01*
X108354494Y-55780537D01*
X108451185Y-55701185D01*
X108530537Y-55604494D01*
X108589502Y-55494180D01*
X108625812Y-55374482D01*
X108638072Y-55250000D01*
X108635000Y-54535750D01*
X108476250Y-54377000D01*
X107127000Y-54377000D01*
X106873000Y-54377000D01*
X105523750Y-54377000D01*
X105365000Y-54535750D01*
X105361928Y-55250000D01*
X102352788Y-55250000D01*
X102236038Y-55075271D01*
X101924729Y-54763962D01*
X101558669Y-54519369D01*
X101151925Y-54350890D01*
X100720128Y-54265000D01*
X100279872Y-54265000D01*
X99848075Y-54350890D01*
X99441331Y-54519369D01*
X99075271Y-54763962D01*
X98763962Y-55075271D01*
X98519369Y-55441331D01*
X98350890Y-55848075D01*
X98265000Y-56279872D01*
X88135000Y-56279872D01*
X88135000Y-54631192D01*
X88138072Y-54600000D01*
X88138072Y-53878363D01*
X88765000Y-53878363D01*
X88765000Y-54121637D01*
X88812460Y-54360236D01*
X88905557Y-54584992D01*
X89040713Y-54787267D01*
X89212733Y-54959287D01*
X89415008Y-55094443D01*
X89639764Y-55187540D01*
X89878363Y-55235000D01*
X90121637Y-55235000D01*
X90360236Y-55187540D01*
X90584992Y-55094443D01*
X90787267Y-54959287D01*
X90959287Y-54787267D01*
X91094443Y-54584992D01*
X91187540Y-54360236D01*
X91235000Y-54121637D01*
X91235000Y-53878363D01*
X91187540Y-53639764D01*
X91094443Y-53415008D01*
X90959287Y-53212733D01*
X90787267Y-53040713D01*
X90584992Y-52905557D01*
X90360236Y-52812460D01*
X90121637Y-52765000D01*
X89878363Y-52765000D01*
X89639764Y-52812460D01*
X89415008Y-52905557D01*
X89212733Y-53040713D01*
X89040713Y-53212733D01*
X88905557Y-53415008D01*
X88812460Y-53639764D01*
X88765000Y-53878363D01*
X88138072Y-53878363D01*
X88138072Y-52600000D01*
X88125812Y-52475518D01*
X88089502Y-52355820D01*
X88030537Y-52245506D01*
X87951185Y-52148815D01*
X87854494Y-52069463D01*
X87744180Y-52010498D01*
X87624482Y-51974188D01*
X87500000Y-51961928D01*
X86549131Y-51961928D01*
X86500000Y-51957089D01*
X86450869Y-51961928D01*
X85500000Y-51961928D01*
X85375518Y-51974188D01*
X85255820Y-52010498D01*
X85145506Y-52069463D01*
X85048815Y-52148815D01*
X84969463Y-52245506D01*
X84910498Y-52355820D01*
X84874188Y-52475518D01*
X84861928Y-52600000D01*
X84861928Y-54600000D01*
X84865000Y-54631193D01*
X84865001Y-58368800D01*
X84861928Y-58400000D01*
X84861928Y-60400000D01*
X84864433Y-60425436D01*
X84857089Y-60500000D01*
X84865000Y-60580319D01*
X84865000Y-60580322D01*
X84888657Y-60820516D01*
X84982148Y-61128715D01*
X85133970Y-61412752D01*
X85338287Y-61661714D01*
X85400682Y-61712920D01*
X86787079Y-63099318D01*
X86838286Y-63161714D01*
X87055529Y-63340000D01*
X83660000Y-63340000D01*
X83660000Y-49660000D01*
X95055529Y-49660000D01*
X94838286Y-49838286D01*
G37*
X94838286Y-49838286D02*
X94787080Y-49900682D01*
X92900682Y-51787080D01*
X92838287Y-51838286D01*
X92633970Y-52087248D01*
X92482148Y-52371285D01*
X92388657Y-52679484D01*
X92374767Y-52820516D01*
X92357089Y-53000000D01*
X92365000Y-53080319D01*
X92365000Y-53218808D01*
X92361928Y-53250000D01*
X92361928Y-55250000D01*
X92374188Y-55374482D01*
X92410498Y-55494180D01*
X92469463Y-55604494D01*
X92548815Y-55701185D01*
X92645506Y-55780537D01*
X92755820Y-55839502D01*
X92875518Y-55875812D01*
X93000000Y-55888072D01*
X93950869Y-55888072D01*
X94000000Y-55892911D01*
X94049131Y-55888072D01*
X95000000Y-55888072D01*
X95124482Y-55875812D01*
X95244180Y-55839502D01*
X95354494Y-55780537D01*
X95451185Y-55701185D01*
X95530537Y-55604494D01*
X95589502Y-55494180D01*
X95625812Y-55374482D01*
X95638072Y-55250000D01*
X95638072Y-53674166D01*
X96677239Y-52635000D01*
X105839876Y-52635000D01*
X105755820Y-52660498D01*
X105645506Y-52719463D01*
X105548815Y-52798815D01*
X105469463Y-52895506D01*
X105410498Y-53005820D01*
X105374188Y-53125518D01*
X105361928Y-53250000D01*
X105365000Y-53964250D01*
X105523750Y-54123000D01*
X106873000Y-54123000D01*
X106873000Y-54103000D01*
X107127000Y-54103000D01*
X107127000Y-54123000D01*
X108476250Y-54123000D01*
X108635000Y-53964250D01*
X108635369Y-53878363D01*
X109765000Y-53878363D01*
X109765000Y-54121637D01*
X109812460Y-54360236D01*
X109905557Y-54584992D01*
X110040713Y-54787267D01*
X110212733Y-54959287D01*
X110415008Y-55094443D01*
X110639764Y-55187540D01*
X110878363Y-55235000D01*
X111121637Y-55235000D01*
X111360236Y-55187540D01*
X111584992Y-55094443D01*
X111787267Y-54959287D01*
X111959287Y-54787267D01*
X112094443Y-54584992D01*
X112187540Y-54360236D01*
X112235000Y-54121637D01*
X112235000Y-53878363D01*
X112187540Y-53639764D01*
X112094443Y-53415008D01*
X111959287Y-53212733D01*
X111787267Y-53040713D01*
X111584992Y-52905557D01*
X111360236Y-52812460D01*
X111121637Y-52765000D01*
X110878363Y-52765000D01*
X110639764Y-52812460D01*
X110415008Y-52905557D01*
X110212733Y-53040713D01*
X110040713Y-53212733D01*
X109905557Y-53415008D01*
X109812460Y-53639764D01*
X109765000Y-53878363D01*
X108635369Y-53878363D01*
X108638072Y-53250000D01*
X108625812Y-53125518D01*
X108589502Y-53005820D01*
X108530537Y-52895506D01*
X108451185Y-52798815D01*
X108354494Y-52719463D01*
X108244180Y-52660498D01*
X108160124Y-52635000D01*
X112322762Y-52635000D01*
X112861928Y-53174167D01*
X112861928Y-54600000D01*
X112874188Y-54724482D01*
X112910498Y-54844180D01*
X112969463Y-54954494D01*
X113048815Y-55051185D01*
X113145506Y-55130537D01*
X113255820Y-55189502D01*
X113375518Y-55225812D01*
X113500000Y-55238072D01*
X114450869Y-55238072D01*
X114500000Y-55242911D01*
X114549131Y-55238072D01*
X115500000Y-55238072D01*
X115624482Y-55225812D01*
X115744180Y-55189502D01*
X115854494Y-55130537D01*
X115951185Y-55051185D01*
X116030537Y-54954494D01*
X116089502Y-54844180D01*
X116125812Y-54724482D01*
X116138072Y-54600000D01*
X116138072Y-52600000D01*
X116135567Y-52574564D01*
X116142911Y-52499999D01*
X116130234Y-52371286D01*
X116111343Y-52179484D01*
X116017852Y-51871285D01*
X115866031Y-51587248D01*
X115661714Y-51338286D01*
X115599320Y-51287081D01*
X114212925Y-49900686D01*
X114161714Y-49838286D01*
X113944471Y-49660000D01*
X117340000Y-49660000D01*
X117340001Y-63340000D01*
X105944471Y-63340000D01*
X106161714Y-63161714D01*
X106212925Y-63099313D01*
X108099320Y-61212919D01*
X108161714Y-61161714D01*
X108366031Y-60912752D01*
X108517852Y-60628715D01*
X108611343Y-60320516D01*
X108635000Y-60080322D01*
X108635000Y-60080320D01*
X108642911Y-60000001D01*
X108635000Y-59919681D01*
X108635000Y-59781192D01*
X108638072Y-59750000D01*
X108638072Y-58878363D01*
X109765000Y-58878363D01*
X109765000Y-59121637D01*
X109812460Y-59360236D01*
X109905557Y-59584992D01*
X110040713Y-59787267D01*
X110212733Y-59959287D01*
X110415008Y-60094443D01*
X110639764Y-60187540D01*
X110878363Y-60235000D01*
X111121637Y-60235000D01*
X111360236Y-60187540D01*
X111584992Y-60094443D01*
X111787267Y-59959287D01*
X111959287Y-59787267D01*
X112094443Y-59584992D01*
X112187540Y-59360236D01*
X112235000Y-59121637D01*
X112235000Y-58878363D01*
X112187540Y-58639764D01*
X112094443Y-58415008D01*
X112084415Y-58400000D01*
X112861928Y-58400000D01*
X112861928Y-60400000D01*
X112874188Y-60524482D01*
X112910498Y-60644180D01*
X112969463Y-60754494D01*
X113048815Y-60851185D01*
X113145506Y-60930537D01*
X113255820Y-60989502D01*
X113375518Y-61025812D01*
X113500000Y-61038072D01*
X115500000Y-61038072D01*
X115624482Y-61025812D01*
X115744180Y-60989502D01*
X115854494Y-60930537D01*
X115951185Y-60851185D01*
X116030537Y-60754494D01*
X116089502Y-60644180D01*
X116125812Y-60524482D01*
X116138072Y-60400000D01*
X116138072Y-58400000D01*
X116125812Y-58275518D01*
X116089502Y-58155820D01*
X116030537Y-58045506D01*
X115951185Y-57948815D01*
X115854494Y-57869463D01*
X115744180Y-57810498D01*
X115624482Y-57774188D01*
X115500000Y-57761928D01*
X113500000Y-57761928D01*
X113375518Y-57774188D01*
X113255820Y-57810498D01*
X113145506Y-57869463D01*
X113048815Y-57948815D01*
X112969463Y-58045506D01*
X112910498Y-58155820D01*
X112874188Y-58275518D01*
X112861928Y-58400000D01*
X112084415Y-58400000D01*
X111959287Y-58212733D01*
X111787267Y-58040713D01*
X111584992Y-57905557D01*
X111360236Y-57812460D01*
X111121637Y-57765000D01*
X110878363Y-57765000D01*
X110639764Y-57812460D01*
X110415008Y-57905557D01*
X110212733Y-58040713D01*
X110040713Y-58212733D01*
X109905557Y-58415008D01*
X109812460Y-58639764D01*
X109765000Y-58878363D01*
X108638072Y-58878363D01*
X108638072Y-57750000D01*
X108625812Y-57625518D01*
X108589502Y-57505820D01*
X108530537Y-57395506D01*
X108451185Y-57298815D01*
X108354494Y-57219463D01*
X108244180Y-57160498D01*
X108124482Y-57124188D01*
X108000000Y-57111928D01*
X107049131Y-57111928D01*
X107000000Y-57107089D01*
X106950869Y-57111928D01*
X106000000Y-57111928D01*
X105875518Y-57124188D01*
X105755820Y-57160498D01*
X105645506Y-57219463D01*
X105548815Y-57298815D01*
X105469463Y-57395506D01*
X105410498Y-57505820D01*
X105374188Y-57625518D01*
X105361928Y-57750000D01*
X105361928Y-59325833D01*
X104322762Y-60365000D01*
X95160124Y-60365000D01*
X95244180Y-60339502D01*
X95354494Y-60280537D01*
X95451185Y-60201185D01*
X95530537Y-60104494D01*
X95589502Y-59994180D01*
X95625812Y-59874482D01*
X95638072Y-59750000D01*
X95635000Y-59035750D01*
X95476250Y-58877000D01*
X94127000Y-58877000D01*
X94127000Y-58897000D01*
X93873000Y-58897000D01*
X93873000Y-58877000D01*
X92523750Y-58877000D01*
X92365000Y-59035750D01*
X92361928Y-59750000D01*
X92374188Y-59874482D01*
X92410498Y-59994180D01*
X92469463Y-60104494D01*
X92548815Y-60201185D01*
X92645506Y-60280537D01*
X92755820Y-60339502D01*
X92839876Y-60365000D01*
X88677239Y-60365000D01*
X88138072Y-59825834D01*
X88138072Y-58878363D01*
X88765000Y-58878363D01*
X88765000Y-59121637D01*
X88812460Y-59360236D01*
X88905557Y-59584992D01*
X89040713Y-59787267D01*
X89212733Y-59959287D01*
X89415008Y-60094443D01*
X89639764Y-60187540D01*
X89878363Y-60235000D01*
X90121637Y-60235000D01*
X90360236Y-60187540D01*
X90584992Y-60094443D01*
X90787267Y-59959287D01*
X90959287Y-59787267D01*
X91094443Y-59584992D01*
X91187540Y-59360236D01*
X91235000Y-59121637D01*
X91235000Y-58878363D01*
X91187540Y-58639764D01*
X91094443Y-58415008D01*
X90959287Y-58212733D01*
X90787267Y-58040713D01*
X90584992Y-57905557D01*
X90360236Y-57812460D01*
X90121637Y-57765000D01*
X89878363Y-57765000D01*
X89639764Y-57812460D01*
X89415008Y-57905557D01*
X89212733Y-58040713D01*
X89040713Y-58212733D01*
X88905557Y-58415008D01*
X88812460Y-58639764D01*
X88765000Y-58878363D01*
X88138072Y-58878363D01*
X88138072Y-58400000D01*
X88135000Y-58368808D01*
X88135000Y-57750000D01*
X92361928Y-57750000D01*
X92365000Y-58464250D01*
X92523750Y-58623000D01*
X93873000Y-58623000D01*
X93873000Y-57273750D01*
X94127000Y-57273750D01*
X94127000Y-58623000D01*
X95476250Y-58623000D01*
X95635000Y-58464250D01*
X95638072Y-57750000D01*
X95625812Y-57625518D01*
X95589502Y-57505820D01*
X95530537Y-57395506D01*
X95451185Y-57298815D01*
X95354494Y-57219463D01*
X95244180Y-57160498D01*
X95124482Y-57124188D01*
X95000000Y-57111928D01*
X94285750Y-57115000D01*
X94127000Y-57273750D01*
X93873000Y-57273750D01*
X93714250Y-57115000D01*
X93000000Y-57111928D01*
X92875518Y-57124188D01*
X92755820Y-57160498D01*
X92645506Y-57219463D01*
X92548815Y-57298815D01*
X92469463Y-57395506D01*
X92410498Y-57505820D01*
X92374188Y-57625518D01*
X92361928Y-57750000D01*
X88135000Y-57750000D01*
X88135000Y-56279872D01*
X98265000Y-56279872D01*
X98265000Y-56720128D01*
X98350890Y-57151925D01*
X98519369Y-57558669D01*
X98763962Y-57924729D01*
X99075271Y-58236038D01*
X99441331Y-58480631D01*
X99848075Y-58649110D01*
X100279872Y-58735000D01*
X100720128Y-58735000D01*
X101151925Y-58649110D01*
X101558669Y-58480631D01*
X101924729Y-58236038D01*
X102236038Y-57924729D01*
X102480631Y-57558669D01*
X102649110Y-57151925D01*
X102735000Y-56720128D01*
X102735000Y-56279872D01*
X102649110Y-55848075D01*
X102480631Y-55441331D01*
X102352788Y-55250000D01*
X105361928Y-55250000D01*
X105374188Y-55374482D01*
X105410498Y-55494180D01*
X105469463Y-55604494D01*
X105548815Y-55701185D01*
X105645506Y-55780537D01*
X105755820Y-55839502D01*
X105875518Y-55875812D01*
X106000000Y-55888072D01*
X106714250Y-55885000D01*
X106873000Y-55726250D01*
X106873000Y-54377000D01*
X107127000Y-54377000D01*
X107127000Y-55726250D01*
X107285750Y-55885000D01*
X108000000Y-55888072D01*
X108124482Y-55875812D01*
X108244180Y-55839502D01*
X108354494Y-55780537D01*
X108451185Y-55701185D01*
X108530537Y-55604494D01*
X108589502Y-55494180D01*
X108625812Y-55374482D01*
X108638072Y-55250000D01*
X108635000Y-54535750D01*
X108476250Y-54377000D01*
X107127000Y-54377000D01*
X106873000Y-54377000D01*
X105523750Y-54377000D01*
X105365000Y-54535750D01*
X105361928Y-55250000D01*
X102352788Y-55250000D01*
X102236038Y-55075271D01*
X101924729Y-54763962D01*
X101558669Y-54519369D01*
X101151925Y-54350890D01*
X100720128Y-54265000D01*
X100279872Y-54265000D01*
X99848075Y-54350890D01*
X99441331Y-54519369D01*
X99075271Y-54763962D01*
X98763962Y-55075271D01*
X98519369Y-55441331D01*
X98350890Y-55848075D01*
X98265000Y-56279872D01*
X88135000Y-56279872D01*
X88135000Y-54631192D01*
X88138072Y-54600000D01*
X88138072Y-53878363D01*
X88765000Y-53878363D01*
X88765000Y-54121637D01*
X88812460Y-54360236D01*
X88905557Y-54584992D01*
X89040713Y-54787267D01*
X89212733Y-54959287D01*
X89415008Y-55094443D01*
X89639764Y-55187540D01*
X89878363Y-55235000D01*
X90121637Y-55235000D01*
X90360236Y-55187540D01*
X90584992Y-55094443D01*
X90787267Y-54959287D01*
X90959287Y-54787267D01*
X91094443Y-54584992D01*
X91187540Y-54360236D01*
X91235000Y-54121637D01*
X91235000Y-53878363D01*
X91187540Y-53639764D01*
X91094443Y-53415008D01*
X90959287Y-53212733D01*
X90787267Y-53040713D01*
X90584992Y-52905557D01*
X90360236Y-52812460D01*
X90121637Y-52765000D01*
X89878363Y-52765000D01*
X89639764Y-52812460D01*
X89415008Y-52905557D01*
X89212733Y-53040713D01*
X89040713Y-53212733D01*
X88905557Y-53415008D01*
X88812460Y-53639764D01*
X88765000Y-53878363D01*
X88138072Y-53878363D01*
X88138072Y-52600000D01*
X88125812Y-52475518D01*
X88089502Y-52355820D01*
X88030537Y-52245506D01*
X87951185Y-52148815D01*
X87854494Y-52069463D01*
X87744180Y-52010498D01*
X87624482Y-51974188D01*
X87500000Y-51961928D01*
X86549131Y-51961928D01*
X86500000Y-51957089D01*
X86450869Y-51961928D01*
X85500000Y-51961928D01*
X85375518Y-51974188D01*
X85255820Y-52010498D01*
X85145506Y-52069463D01*
X85048815Y-52148815D01*
X84969463Y-52245506D01*
X84910498Y-52355820D01*
X84874188Y-52475518D01*
X84861928Y-52600000D01*
X84861928Y-54600000D01*
X84865000Y-54631193D01*
X84865001Y-58368800D01*
X84861928Y-58400000D01*
X84861928Y-60400000D01*
X84864433Y-60425436D01*
X84857089Y-60500000D01*
X84865000Y-60580319D01*
X84865000Y-60580322D01*
X84888657Y-60820516D01*
X84982148Y-61128715D01*
X85133970Y-61412752D01*
X85338287Y-61661714D01*
X85400682Y-61712920D01*
X86787079Y-63099318D01*
X86838286Y-63161714D01*
X87055529Y-63340000D01*
X83660000Y-63340000D01*
X83660000Y-49660000D01*
X95055529Y-49660000D01*
X94838286Y-49838286D01*
M02*
