G04 #@! TF.GenerationSoftware,KiCad,Pcbnew,5.1.5*
G04 #@! TF.CreationDate,2020-03-24T12:45:04+09:00*
G04 #@! TF.ProjectId,ABC,4142432e-6b69-4636-9164-5f7063625858,rev?*
G04 #@! TF.SameCoordinates,Original*
G04 #@! TF.FileFunction,Legend,Top*
G04 #@! TF.FilePolarity,Positive*
%FSLAX46Y46*%
G04 Gerber Fmt 4.6, Leading zero omitted, Abs format (unit mm)*
G04 Created by KiCad (PCBNEW 5.1.5) date 2020-03-24 12:45:04*
%MOMM*%
%LPD*%
G04 APERTURE LIST*
%ADD10C,0.500000*%
%ADD11C,0.150000*%
G04 APERTURE END LIST*
D10*
X85619047Y-51333333D02*
X86571428Y-51333333D01*
X85428571Y-51904761D02*
X86095238Y-49904761D01*
X86761904Y-51904761D01*
X87428571Y-51142857D02*
X88952380Y-51142857D01*
X90571428Y-50857142D02*
X90857142Y-50952380D01*
X90952380Y-51047619D01*
X91047619Y-51238095D01*
X91047619Y-51523809D01*
X90952380Y-51714285D01*
X90857142Y-51809523D01*
X90666666Y-51904761D01*
X89904761Y-51904761D01*
X89904761Y-49904761D01*
X90571428Y-49904761D01*
X90761904Y-50000000D01*
X90857142Y-50095238D01*
X90952380Y-50285714D01*
X90952380Y-50476190D01*
X90857142Y-50666666D01*
X90761904Y-50761904D01*
X90571428Y-50857142D01*
X89904761Y-50857142D01*
X94571428Y-51714285D02*
X94476190Y-51809523D01*
X94190476Y-51904761D01*
X94000000Y-51904761D01*
X93714285Y-51809523D01*
X93523809Y-51619047D01*
X93428571Y-51428571D01*
X93333333Y-51047619D01*
X93333333Y-50761904D01*
X93428571Y-50380952D01*
X93523809Y-50190476D01*
X93714285Y-50000000D01*
X94000000Y-49904761D01*
X94190476Y-49904761D01*
X94476190Y-50000000D01*
X94571428Y-50095238D01*
X95714285Y-51904761D02*
X95523809Y-51809523D01*
X95428571Y-51714285D01*
X95333333Y-51523809D01*
X95333333Y-50952380D01*
X95428571Y-50761904D01*
X95523809Y-50666666D01*
X95714285Y-50571428D01*
X96000000Y-50571428D01*
X96190476Y-50666666D01*
X96285714Y-50761904D01*
X96380952Y-50952380D01*
X96380952Y-51523809D01*
X96285714Y-51714285D01*
X96190476Y-51809523D01*
X96000000Y-51904761D01*
X95714285Y-51904761D01*
X97238095Y-50571428D02*
X97238095Y-51904761D01*
X97238095Y-50761904D02*
X97333333Y-50666666D01*
X97523809Y-50571428D01*
X97809523Y-50571428D01*
X98000000Y-50666666D01*
X98095238Y-50857142D01*
X98095238Y-51904761D01*
X98857142Y-50571428D02*
X99333333Y-51904761D01*
X99809523Y-50571428D01*
X101333333Y-51809523D02*
X101142857Y-51904761D01*
X100761904Y-51904761D01*
X100571428Y-51809523D01*
X100476190Y-51619047D01*
X100476190Y-50857142D01*
X100571428Y-50666666D01*
X100761904Y-50571428D01*
X101142857Y-50571428D01*
X101333333Y-50666666D01*
X101428571Y-50857142D01*
X101428571Y-51047619D01*
X100476190Y-51238095D01*
X102285714Y-51904761D02*
X102285714Y-50571428D01*
X102285714Y-50952380D02*
X102380952Y-50761904D01*
X102476190Y-50666666D01*
X102666666Y-50571428D01*
X102857142Y-50571428D01*
X103238095Y-50571428D02*
X104000000Y-50571428D01*
X103523809Y-49904761D02*
X103523809Y-51619047D01*
X103619047Y-51809523D01*
X103809523Y-51904761D01*
X104000000Y-51904761D01*
X105428571Y-51809523D02*
X105238095Y-51904761D01*
X104857142Y-51904761D01*
X104666666Y-51809523D01*
X104571428Y-51619047D01*
X104571428Y-50857142D01*
X104666666Y-50666666D01*
X104857142Y-50571428D01*
X105238095Y-50571428D01*
X105428571Y-50666666D01*
X105523809Y-50857142D01*
X105523809Y-51047619D01*
X104571428Y-51238095D01*
X106380952Y-51904761D02*
X106380952Y-50571428D01*
X106380952Y-50952380D02*
X106476190Y-50761904D01*
X106571428Y-50666666D01*
X106761904Y-50571428D01*
X106952380Y-50571428D01*
X107619047Y-51142857D02*
X109142857Y-51142857D01*
X110952380Y-51809523D02*
X110761904Y-51904761D01*
X110380952Y-51904761D01*
X110190476Y-51809523D01*
X110095238Y-51714285D01*
X110000000Y-51523809D01*
X110000000Y-50952380D01*
X110095238Y-50761904D01*
X110190476Y-50666666D01*
X110380952Y-50571428D01*
X110761904Y-50571428D01*
X110952380Y-50666666D01*
X111809523Y-51904761D02*
X111809523Y-49904761D01*
X112666666Y-51904761D02*
X112666666Y-50857142D01*
X112571428Y-50666666D01*
X112380952Y-50571428D01*
X112095238Y-50571428D01*
X111904761Y-50666666D01*
X111809523Y-50761904D01*
X114476190Y-51904761D02*
X114476190Y-50857142D01*
X114380952Y-50666666D01*
X114190476Y-50571428D01*
X113809523Y-50571428D01*
X113619047Y-50666666D01*
X114476190Y-51809523D02*
X114285714Y-51904761D01*
X113809523Y-51904761D01*
X113619047Y-51809523D01*
X113523809Y-51619047D01*
X113523809Y-51428571D01*
X113619047Y-51238095D01*
X113809523Y-51142857D01*
X114285714Y-51142857D01*
X114476190Y-51047619D01*
X115428571Y-50571428D02*
X115428571Y-51904761D01*
X115428571Y-50761904D02*
X115523809Y-50666666D01*
X115714285Y-50571428D01*
X116000000Y-50571428D01*
X116190476Y-50666666D01*
X116285714Y-50857142D01*
X116285714Y-51904761D01*
D11*
X83000000Y-52500000D02*
X83000000Y-60500000D01*
X83000000Y-52500000D02*
X95000000Y-52500000D01*
X95000000Y-52500000D02*
X95000000Y-60500000D01*
X95000000Y-60500000D02*
X83000000Y-60500000D01*
X106000000Y-52500000D02*
X118000000Y-52500000D01*
X106000000Y-60500000D02*
X106000000Y-52500000D01*
X118000000Y-60500000D02*
X106000000Y-60500000D01*
X118000000Y-60500000D02*
X118000000Y-52500000D01*
X95452380Y-56833333D02*
X96166666Y-56833333D01*
X96309523Y-56880952D01*
X96404761Y-56976190D01*
X96452380Y-57119047D01*
X96452380Y-57214285D01*
X96452380Y-55833333D02*
X96452380Y-56404761D01*
X96452380Y-56119047D02*
X95452380Y-56119047D01*
X95595238Y-56214285D01*
X95690476Y-56309523D01*
X95738095Y-56404761D01*
X104452380Y-56833333D02*
X105166666Y-56833333D01*
X105309523Y-56880952D01*
X105404761Y-56976190D01*
X105452380Y-57119047D01*
X105452380Y-57214285D01*
X104547619Y-56404761D02*
X104500000Y-56357142D01*
X104452380Y-56261904D01*
X104452380Y-56023809D01*
X104500000Y-55928571D01*
X104547619Y-55880952D01*
X104642857Y-55833333D01*
X104738095Y-55833333D01*
X104880952Y-55880952D01*
X105452380Y-56452380D01*
X105452380Y-55833333D01*
M02*
